<svg width="141" height="22" viewBox="0 0 141 22" fill="none" xmlns="http://www.w3.org/2000/svg">
<path fill-rule="evenodd" clip-rule="evenodd" d="M66.8868 0.0557703C58.1249 0.515964 41.3012 4.74636 25.4759 10.4687C24.1998 10.9302 22.5186 11.5385 21.7399 11.8205C11.2399 15.624 5.59296 18.0225 1.64024 20.3581C0.0976175 21.2696 -0.0349129 21.3801 0.00590806 21.7207C0.0655272 22.2177 0.31651 22.141 3.17893 20.7503C6.14093 19.3112 8.79579 18.2663 16.0769 15.6739C40.4118 7.0095 51.7779 3.83313 64.5272 2.13417C67.0256 1.8012 71.0161 1.85918 71.0161 2.2284C71.0161 2.72158 68.5132 4.40354 62.7182 7.80462C55.589 11.9888 51.249 14.7644 50.8646 15.3854C50.2079 16.4466 50.9302 17.2124 52.4933 17.112C53.3865 17.0547 53.5893 17.0113 57.6844 16.0015C69.4419 13.1022 76.9562 11.6308 87.14 10.2334C102.649 8.10525 112.53 7.32017 131.107 6.73991C137.782 6.53147 138.128 6.50238 139.36 6.046C139.835 5.87008 140.402 5.69816 140.62 5.66386C141.132 5.58367 141.126 5.48107 140.605 5.40542C140.377 5.37243 139.855 5.21501 139.444 5.05554C138.431 4.66235 137.759 4.64181 131.972 4.82693C112.572 5.44743 102.364 6.24097 87.5726 8.27838C79.7933 9.34988 76.3269 9.93209 70.6622 11.1186C66.7896 11.9297 56.568 14.2911 55.1361 14.7053C54.3549 14.9313 57.7461 12.7993 63.7028 9.31967C71.2377 4.91809 72.7378 3.72264 72.7448 2.11447C72.7526 0.301016 71.3831 -0.180274 66.8868 0.0557703Z" fill="black" fill-opacity="0.9"/>
</svg>
