<svg width="42" height="42" viewBox="0 0 42 42" fill="none" xmlns="http://www.w3.org/2000/svg">
<circle cx="21" cy="21" r="20" fill="#151412" stroke="#151412" stroke-width="2" stroke-linecap="round"/>
<path d="M13.5 20.2928C13.6876 20.1053 13.9419 20 14.207 20C14.4722 20 14.7265 20.1053 14.914 20.2928L18.9855 24.3638L28.0565 15.2928C28.2441 15.1053 28.4984 15 28.7635 15C29.0287 15 29.283 15.1053 29.4705 15.2928L30.1775 15.9998C30.2704 16.0927 30.3441 16.2029 30.3944 16.3243C30.4447 16.4456 30.4706 16.5757 30.4706 16.707C30.4706 16.8384 30.4447 16.9685 30.3944 17.0898C30.3441 17.2112 30.2704 17.3214 30.1775 17.4143L19.6925 27.8993C19.5997 27.9922 19.4894 28.0659 19.3681 28.1162C19.2467 28.1664 19.1166 28.1923 18.9853 28.1923C18.8539 28.1923 18.7239 28.1664 18.6025 28.1162C18.4812 28.0659 18.3709 27.9922 18.278 27.8993L12.793 22.4143C12.7001 22.3214 12.6264 22.2112 12.5762 22.0898C12.5259 21.9685 12.5 21.8384 12.5 21.707C12.5 21.5757 12.5259 21.4456 12.5762 21.3243C12.6264 21.2029 12.7001 21.0927 12.793 20.9998L13.5 20.2928Z" fill="white"/>
</svg>
